<?xml version="1.0" encoding="UTF-8" standalone="no"?>
<!-- Created with Inkscape (http://www.inkscape.org/) -->

<svg
   width="24"
   height="24"
   viewBox="0 0 24 24"
   version="1.1"
   id="svg1"
   xml:space="preserve"
   xmlns="http://www.w3.org/2000/svg"
   xmlns:svg="http://www.w3.org/2000/svg"><defs
     id="defs1" /><path
     style="fill:#000000;fill-opacity:1;stroke-width:0.0044801"
     d="m 3.7561937,23.982227 c 0.5570026,-0.08578 0.9471323,-0.3147 1.3752499,-0.806827 0.5264408,-0.605155 1.0265049,-0.873903 2.4159916,-1.29839 0.8570494,-0.261835 2.6157478,-0.761491 4.0081988,-1.138753 0.177418,-0.04809 0.350044,-0.09492 0.383631,-0.104094 0.06109,-0.01673 0.06109,-0.01673 0.400215,0.07522 1.702878,0.461348 3.637601,1.014087 4.417228,1.261989 1.126976,0.358363 1.62711,0.643229 2.113934,1.20407 0.428446,0.493583 0.815751,0.721059 1.373404,0.806644 0.86867,0.133305 1.489353,-0.520557 1.315729,-1.386073 -0.04844,-0.241478 -0.02955,-0.331215 0.101339,-0.481928 0.02088,-0.02408 0.05771,-0.06655 0.08171,-0.09451 0.510385,-0.592539 0.324986,-1.438697 -0.38772,-1.769531 -0.534049,-0.2479 -1.017952,-0.256834 -1.693477,-0.03128 -0.808654,0.270022 -1.34052,0.246548 -2.935959,-0.129613 -0.503365,-0.118686 -1.373898,-0.33385 -1.373898,-0.339586 0,-0.009 1.403498,-0.348954 1.836841,-0.444928 0.734265,-0.16261 1.167382,-0.215129 1.611348,-0.19539 0.336207,0.01499 0.456539,0.03882 0.850508,0.169004 0.505817,0.167108 0.745235,0.197661 1.118087,0.14268 0.765546,-0.112863 1.2216,-0.52281 1.261225,-1.1337 0.02028,-0.312204 -0.07876,-0.564212 -0.341839,-0.870013 -0.162263,-0.188623 -0.179533,-0.257891 -0.128175,-0.513945 0.179507,-0.89483 -0.476295,-1.544186 -1.387407,-1.373752 -0.52943,0.09903 -0.885722,0.318548 -1.318294,0.812242 -0.466712,0.532637 -0.94416,0.810701 -1.964131,1.143884 -0.750149,0.245031 -2.756679,0.820023 -4.627998,1.326187 -0.291304,0.07876 -0.180677,0.09508 -1.136396,-0.167185 C 8.4033408,17.897674 6.9518208,17.462312 6.4241496,17.234515 5.8259617,16.976277 5.5094683,16.75465 5.1416771,16.336471 4.7248936,15.862575 4.4122213,15.662013 3.9125731,15.548066 c -0.9605199,-0.219045 -1.6537296,0.419366 -1.4715454,1.3552 0.052944,0.272041 0.03908,0.320765 -0.1560762,0.546569 -0.5545677,0.641756 -0.3610235,1.492896 0.4150073,1.825031 0.5266921,0.225422 0.9779456,0.225578 1.6591626,7.87e-4 0.8129617,-0.268549 1.3304514,-0.240924 3.0240318,0.161389 0.3457037,0.08215 1.2619359,0.306875 1.2658785,0.310515 0.0052,0.0043 -0.00954,0.0087 -0.4146521,0.108833 -1.8611722,0.461201 -2.3587927,0.551223 -2.9658277,0.536518 -0.3646716,-0.0089 -0.525427,-0.03873 -0.9199239,-0.17111 -0.6632717,-0.222572 -1.1243687,-0.220692 -1.6546481,0.0069 -0.7514306,0.322282 -0.9604159,1.181818 -0.435509,1.791228 0.024089,0.0279 0.060829,0.07045 0.081712,0.09451 0.1308781,0.150686 0.1497419,0.240335 0.1013733,0.481928 -0.1734324,0.866208 0.4465483,1.519975 1.3146114,1.386246 z m 7.2349423,-6.242535 c 0.287041,-0.02799 0.398759,-0.118132 0.444416,-0.358563 0.04939,-0.260248 0.0461,-0.882265 -0.0088,-1.669578 -0.03397,-0.487465 7.89e-4,-0.658332 0.155738,-0.764359 0.236307,-0.161734 0.71957,-0.137056 0.890688,0.04549 0.109987,0.117326 0.133227,0.311589 0.09637,0.805518 -0.07807,1.046452 -0.04601,1.660861 0.09463,1.810811 0.214548,0.228803 1.364618,0.163649 1.688702,-0.09567 0.215752,-0.172626 0.213543,-0.549706 -0.01048,-1.790032 -0.0753,-0.416878 -0.08067,-0.551006 -0.02704,-0.672326 0.122317,-0.276573 0.729907,-0.363736 0.924292,-0.132594 0.102915,0.12236 0.125835,0.234842 0.168917,0.829035 0.07166,0.988015 0.129926,1.217953 0.335098,1.321925 0.272943,0.138313 1.133605,-0.05823 1.374028,-0.313747 0.185867,-0.197547 0.164369,-0.493209 -0.126597,-1.741039 -0.163234,-0.700046 -0.20039,-1.018108 -0.155132,-1.32799 0.06118,-0.418889 0.221879,-0.645387 0.66627,-0.939048 1.002502,-0.662474 1.187719,-1.210786 0.949714,-2.8114766 -0.04029,-0.2709496 -0.04064,-0.2763047 -0.02192,-0.3532509 0.0175,-0.07218 0.151604,-0.5289451 0.249018,-0.8482288 0.1619,-0.530605 0.178312,-0.5871363 0.226403,-0.7795452 C 19.10375,7.161624 19.167223,6.0615264 19.06695,5.1564545 18.910891,3.7479479 18.165639,2.4550425 17.033376,1.6284506 15.576977,0.5652231 13.628651,-0.04159538 11.811913,0.00217223 9.5534536,0.05658918 7.1320293,1.1165414 6.0153033,2.5396054 5.1184026,3.6825349 4.7858007,4.9592364 4.9134119,6.7692934 4.9599433,7.4287957 5.032436,7.7873497 5.288551,8.6240538 c 0.1512669,0.4941718 0.277821,0.9271073 0.2907407,0.9945826 0.00902,0.047311 0.0078,0.063168 -0.041679,0.4002246 -0.2225464,1.527228 -0.031541,2.065505 0.9705367,2.735128 0.327065,0.218552 0.4360029,0.330592 0.549568,0.565218 0.177401,0.366491 0.1681467,0.760347 -0.038993,1.657637 -0.3291013,1.425906 -0.3349589,1.637335 -0.051297,1.851312 0.2107531,0.158996 0.8267565,0.31704 1.1146981,0.285975 0.3602091,-0.03882 0.4278057,-0.219791 0.5105403,-1.366707 0.042719,-0.592373 0.066028,-0.706458 0.1691084,-0.829035 0.194714,-0.231524 0.8017924,-0.144066 0.9241178,0.133122 0.053637,0.121459 0.048352,0.254096 -0.026602,0.669008 -0.2242793,1.242206 -0.2264282,1.620326 -0.010225,1.793299 0.2000603,0.160036 0.866781,0.272267 1.342132,0.225909 z m 0.397746,-5.391845 c -0.654139,-0.09541 -0.684007,-0.795866 -0.07261,-1.701804 0.635404,-0.9414573 0.733303,-0.9414573 1.368699,0 0.532905,0.789583 0.588405,1.361481 0.157107,1.618783 -0.218405,0.130289 -0.382626,0.119189 -0.630561,-0.04264 -0.193735,-0.12645 -0.227546,-0.126329 -0.424323,0.0017 -0.178067,0.115722 -0.266625,0.143312 -0.398344,0.124102 z M 8.4882503,10.248201 c -0.011525,-0.0017 -0.047745,-0.0052 -0.080672,-0.0088 C 6.9491434,10.0841 6.1924097,8.3396992 7.0749696,7.1675943 8.1807686,5.6990383 10.480847,6.4138242 10.569872,8.2536892 10.623942,9.372027 9.5781839,10.374062 8.4882157,10.248227 Z M 15.16067,10.24211 C 13.719089,10.085106 12.95376,8.453117 13.755066,7.2448005 14.583071,5.9962346 16.465005,6.1290363 17.113961,7.481809 17.766342,8.8417302 16.659823,10.40543 15.16067,10.242135 Z"
     id="path1" /></svg>
